<svg xmlns="http://www.w3.org/2000/svg" data-name="Layer 1" viewBox="0 0 512 640" x="0px" y="0px"><title>No Cash</title><path d="M58.664,233.527a16.336,16.336,0,0,0-6.982,21.989A15.866,15.866,0,0,0,61.4,263.36a16.728,16.728,0,0,0,20.459-10.869,15.861,15.861,0,0,0-1.062-12.438A16.334,16.334,0,0,0,58.664,233.527ZM70.439,248.79a4.733,4.733,0,0,1-5.72,3.04,3.964,3.964,0,0,1-2.439-1.943,4.328,4.328,0,0,1,2.013-5.762,4.732,4.732,0,0,1,2.222-.56,4.1,4.1,0,0,1,3.68,2.118A3.961,3.961,0,0,1,70.439,248.79Z"/><path d="M327.911,308.359a56.714,56.714,0,1,0-33.484-27.623A56.883,56.883,0,0,0,327.911,308.359Zm-4.376-93.717a44.714,44.714,0,1,1-18.51,60.465A44.442,44.442,0,0,1,323.535,214.642Z"/><path d="M315.2,275.7a5.966,5.966,0,0,0,2.809-.7l2.353-1.25a18.994,18.994,0,0,0,13.042,5.2,18.9,18.9,0,0,0,16.664-27.771,6.905,6.905,0,1,1,9.338,2.857,6,6,0,1,0,5.628,10.6,18.873,18.873,0,0,0,9.771-19.8l1.834-.975a6,6,0,0,0-5.629-10.6l-1.835.975a18.9,18.9,0,0,0-29.7,22.575,6.9,6.9,0,0,1-12.148,6.558c-.015-.028-.025-.056-.04-.084s-.032-.052-.047-.08a6.911,6.911,0,0,1,2.9-9.254,6,6,0,0,0-5.629-10.6,18.924,18.924,0,0,0-9.765,19.8l-2.358,1.252a6,6,0,0,0,2.82,11.3Z"/><path d="M256,10A246,246,0,0,0,82.052,429.948a246,246,0,1,0,347.9-347.9A244.39,244.39,0,0,0,256,10ZM90.537,421.463A234.082,234.082,0,0,1,365.016,48.831L294.237,182.806l-63.393-26.122a5.721,5.721,0,0,0-.581-.2,30.62,30.62,0,0,0-23.205,2.331L88.94,221.557l-2.094-3.942a16.02,16.02,0,0,0-21.636-6.623L37.421,225.755A16.019,16.019,0,0,0,30.8,247.391L83.959,347.464h0a16.01,16.01,0,0,0,21.637,6.623l27.789-14.763a16.018,16.018,0,0,0,6.623-21.636l-.057-.107,23.721-12.6A30.826,30.826,0,0,0,202,312.706l22.629-12.021,3.677,6.92-82,155.212A234.787,234.787,0,0,1,90.537,421.463Zm4.02-79.628L41.4,241.762a4,4,0,0,1,1.656-5.409L70.84,221.59a4,4,0,0,1,5.409,1.655l53.162,100.073a4.006,4.006,0,0,1-1.656,5.41L99.966,343.49a4.006,4.006,0,0,1-5.409-1.656Zm.013-109.68,118.118-62.748a18.7,18.7,0,0,1,13.888-1.5l59.307,24.439L247.6,212.68l-34.7-15.2a6,6,0,1,0-4.813,10.993l58.955,25.816-6.473,12.252a12.628,12.628,0,0,1-3.767-.553L221.222,235.1a6,6,0,0,0-4.261.285l-5.221,2.4c-.105.048-.208.1-.31.154a30.656,30.656,0,0,0-10.154,8.817,27.662,27.662,0,0,1-24.767,10.874,6.013,6.013,0,0,0-3.412.672l-10.952,5.817a6,6,0,1,0,5.629,10.6l9.421-5a39.836,39.836,0,0,0,26.5-8.442L219,290.087l-22.63,12.021a18.8,18.8,0,0,1-25.427-7.784,6,6,0,0,0-8.114-2.484l-28.507,15.144Zm185.942-23.37-7.855,14.867-11.035-4.832Zm-68.09,43.345a18.018,18.018,0,0,1,4.5-3.52l2.977-1.367,33.39,10.222c.438.134.878.252,1.319.361L235.08,294.781Zm56.083,5.071a24.909,24.909,0,0,0,3.523-1.534,24.435,24.435,0,0,0,11.983-14.524l1.815-5.929a5.992,5.992,0,0,0-2.217-6.6l15.77-29.851,103.749-55.116a4.144,4.144,0,0,1,5.6,1.715l61.86,116.446a4.148,4.148,0,0,1-1.715,5.6L278.855,368.354a4.147,4.147,0,0,1-5.6-1.715L241.885,307.59ZM421.463,421.463a234.421,234.421,0,0,1-264.415,46.71l78.061-147.758,27.546,51.853a16.148,16.148,0,0,0,21.83,6.683L474.5,278.007a16.161,16.161,0,0,0,6.683-21.829L419.328,139.732a16.141,16.141,0,0,0-21.829-6.683l-88.141,46.823L375.485,54.7a235.5,235.5,0,0,1,45.978,35.834,234,234,0,0,1,0,330.926Z"/><text x="0" y="527" fill="#000000" font-size="5px" font-weight="bold" font-family="'Helvetica Neue', Helvetica, Arial-Unicode, Arial, Sans-serif">Created by Icongeek26</text><text x="0" y="532" fill="#000000" font-size="5px" font-weight="bold" font-family="'Helvetica Neue', Helvetica, Arial-Unicode, Arial, Sans-serif">from the Noun Project</text></svg>